<?xml version="1.0" encoding="UTF-8"?>
<svg id="Layer_2" data-name="Layer 2" xmlns="http://www.w3.org/2000/svg" xmlns:xlink="http://www.w3.org/1999/xlink" viewBox="0 0 113.34 113.33">
  <defs>
    <style>
      .cls-1 {
        fill: url(#linear-gradient);
      }

      .cls-1, .cls-2, .cls-3 {
        stroke-width: 0px;
      }

      .cls-2 {
        fill: url(#linear-gradient-2);
      }

      .cls-3 {
        fill: url(#New_Gradient_Swatch_copy_4);
      }
    </style>
    <linearGradient id="linear-gradient" x1="43.19" y1="40.63" x2="71.81" y2="72.13" gradientUnits="userSpaceOnUse">
      <stop offset="0" stop-color="#e7e687"/>
      <stop offset="1" stop-color="#b8932f"/>
    </linearGradient>
    <linearGradient id="linear-gradient-2" x1="-4.85" y1="-11" x2="124.98" y2="131.8" xlink:href="#linear-gradient"/>
    <linearGradient id="New_Gradient_Swatch_copy_4" data-name="New Gradient Swatch copy 4" x1="20.49" y1="10.07" x2="93.73" y2="101.62" gradientUnits="userSpaceOnUse">
      <stop offset="0" stop-color="#d29d42"/>
      <stop offset=".13" stop-color="#ffd679"/>
      <stop offset=".23" stop-color="#fff1ad"/>
      <stop offset=".34" stop-color="#ffcf7b"/>
      <stop offset=".5" stop-color="#d29d42"/>
      <stop offset=".73" stop-color="#ffcb7a"/>
      <stop offset=".87" stop-color="#ddab4e"/>
    </linearGradient>
  </defs>
  <g id="Layer_1-2" data-name="Layer 1">
    <g>
      <g>
        <path class="cls-1" d="M75.18,50.59c-.75-1.64-2.29-2.59-4.23-2.59h-.13c-.86.02-1.72.02-2.58.02h-2.88l.91-2.51c1.06-2.99,2.14-5.98,3.2-8.97.55-1.54.45-2.86-.28-3.91-.74-1.06-1.93-1.62-3.55-1.65l-1.84-.03c-1.41-.02-2.83-.05-4.24-.1h-.22c-1.08-.01-2.6.36-3.64,2.08-1.86,3.05-3.72,6.09-5.6,9.15-2.12,3.46-4.24,6.92-6.35,10.39-1.18,1.92-2.09,3.56-2.87,5.14-.81,1.61-.76,3.43.12,4.88.9,1.43,2.51,2.3,4.32,2.3h5.04l-1.99,5.71c-.79,2.23-1.57,4.45-2.33,6.68-.45,1.33-.31,2.64.42,3.67.72,1.02,1.9,1.6,3.32,1.63h.21s.93,0,.93,0c.13,0,.26,0,.39.01.13,0,.26,0,.39,0,.96,0,2.34-.31,3.47-1.75,2.39-3.02,4.78-6.04,7.17-9.05,1.91-2.39,3.8-4.8,5.7-7.18,1.33-1.69,2.65-3.41,3.98-5.11.92-1.16,1.82-2.32,2.73-3.49.82-1.05,1.56-2.81.43-5.33ZM72.56,54.2c-2.24,2.85-4.46,5.73-6.71,8.58-4.28,5.42-8.59,10.82-12.87,16.24-.4.5-.81.73-1.45.68-.57-.05-1.14,0-1.71-.01-1.03-.02-1.48-.63-1.13-1.61,1.04-3.07,2.13-6.13,3.19-9.21.71-2.02,1.41-4.06,2.13-6.08.07-.21.13-.43.22-.79h-8.91c-1.76,0-2.76-1.54-1.95-3.16.84-1.67,1.79-3.31,2.75-4.91,3.98-6.53,7.98-13.03,11.97-19.56.33-.55.7-.76,1.35-.73,2.05.09,4.1.09,6.14.13,1.35.03,1.72.53,1.26,1.83-1.65,4.67-3.34,9.32-5,13.98-.12.36-.21.73-.36,1.22h3.25c2.06,0,4.1.03,6.14,0,.81-.02,1.44.22,1.77.95.37.82.55,1.65-.08,2.46Z"/>
        <path class="cls-2" d="M0,0v113.33h113.34V0H0ZM77.91,58.38l-.31.4c-.81,1.04-1.62,2.08-2.44,3.12-.56.72-1.14,1.46-1.72,2.2-.75.97-1.5,1.94-2.25,2.9-.93,1.16-1.84,2.31-2.75,3.46-.99,1.25-1.98,2.5-2.97,3.74-2.38,3-4.77,6.02-7.16,9.04-1.65,2.1-4,3.26-6.61,3.26-.24,0-.48,0-.71-.02h-1.07s-.28,0-.28,0c-2.66-.07-5-1.28-6.44-3.32-1.46-2.06-1.81-4.71-.94-7.26.76-2.25,1.55-4.49,2.34-6.73l.14-.39c-2.95-.18-5.58-1.71-7.12-4.16-1.64-2.69-1.74-5.96-.31-8.81.85-1.71,1.82-3.45,3.04-5.43,2.02-3.33,4.07-6.67,6.11-10.01l.23-.38c1.88-3.06,3.74-6.09,5.6-9.14,1.54-2.54,4.11-4.01,7.05-4.01l.4.02c1.35.04,2.74.07,4.12.09l1.85.03c2.89.06,5.29,1.25,6.76,3.36,1.48,2.13,1.75,4.8.77,7.55-.52,1.47-1.05,2.96-1.58,4.44-.2.56-.4,1.12-.6,1.67,3.47.04,6.37,1.88,7.76,4.93,1.51,3.35,1.17,6.79-.91,9.45Z"/>
        <path class="cls-1" d="M75.18,50.59c-.75-1.64-2.29-2.59-4.23-2.59h-.13c-.86.02-1.72.02-2.58.02h-2.88l.91-2.51c1.06-2.99,2.14-5.98,3.2-8.97.55-1.54.45-2.86-.28-3.91-.74-1.06-1.93-1.62-3.55-1.65l-1.84-.03c-1.41-.02-2.83-.05-4.24-.1h-.22c-1.08-.01-2.6.36-3.64,2.08-1.86,3.05-3.72,6.09-5.6,9.15-2.12,3.46-4.24,6.92-6.35,10.39-1.18,1.92-2.09,3.56-2.87,5.14-.81,1.61-.76,3.43.12,4.88.9,1.43,2.51,2.3,4.32,2.3h5.04l-1.99,5.71c-.79,2.23-1.57,4.45-2.33,6.68-.45,1.33-.31,2.64.42,3.67.72,1.02,1.9,1.6,3.32,1.63h.21s.93,0,.93,0c.13,0,.26,0,.39.01.13,0,.26,0,.39,0,.96,0,2.34-.31,3.47-1.75,2.39-3.02,4.78-6.04,7.17-9.05,1.91-2.39,3.8-4.8,5.7-7.18,1.33-1.69,2.65-3.41,3.98-5.11.92-1.16,1.82-2.32,2.73-3.49.82-1.05,1.56-2.81.43-5.33ZM72.56,54.2c-2.24,2.85-4.46,5.73-6.71,8.58-4.28,5.42-8.59,10.82-12.87,16.24-.4.5-.81.73-1.45.68-.57-.05-1.14,0-1.71-.01-1.03-.02-1.48-.63-1.13-1.61,1.04-3.07,2.13-6.13,3.19-9.21.71-2.02,1.41-4.06,2.13-6.08.07-.21.13-.43.22-.79h-8.91c-1.76,0-2.76-1.54-1.95-3.16.84-1.67,1.79-3.31,2.75-4.91,3.98-6.53,7.98-13.03,11.97-19.56.33-.55.7-.76,1.35-.73,2.05.09,4.1.09,6.14.13,1.35.03,1.72.53,1.26,1.83-1.65,4.67-3.34,9.32-5,13.98-.12.36-.21.73-.36,1.22h3.25c2.06,0,4.1.03,6.14,0,.81-.02,1.44.22,1.77.95.37.82.55,1.65-.08,2.46Z"/>
      </g>
      <g>
        <path class="cls-3" d="M75.18,50.59c-.75-1.64-2.29-2.59-4.23-2.59h-.13c-.86.02-1.72.02-2.58.02h-2.88l.91-2.51c1.06-2.99,2.14-5.98,3.2-8.97.55-1.54.45-2.86-.28-3.91-.74-1.06-1.93-1.62-3.55-1.65l-1.84-.03c-1.41-.02-2.83-.05-4.24-.1h-.22c-1.08-.01-2.6.36-3.64,2.08-1.86,3.05-3.72,6.09-5.6,9.15-2.12,3.46-4.24,6.92-6.35,10.39-1.18,1.92-2.09,3.56-2.87,5.14-.81,1.61-.76,3.43.12,4.88.9,1.43,2.51,2.3,4.32,2.3h5.04l-1.99,5.71c-.79,2.23-1.57,4.45-2.33,6.68-.45,1.33-.31,2.64.42,3.67.72,1.02,1.9,1.6,3.32,1.63h.21s.93,0,.93,0c.13,0,.26,0,.39.01.13,0,.26,0,.39,0,.96,0,2.34-.31,3.47-1.75,2.39-3.02,4.78-6.04,7.17-9.05,1.91-2.39,3.8-4.8,5.7-7.18,1.33-1.69,2.65-3.41,3.98-5.11.92-1.16,1.82-2.32,2.73-3.49.82-1.05,1.56-2.81.43-5.33ZM72.56,54.2c-2.24,2.85-4.46,5.73-6.71,8.58-4.28,5.42-8.59,10.82-12.87,16.24-.4.5-.81.73-1.45.68-.57-.05-1.14,0-1.71-.01-1.03-.02-1.48-.63-1.13-1.61,1.04-3.07,2.13-6.13,3.19-9.21.71-2.02,1.41-4.06,2.13-6.08.07-.21.13-.43.22-.79h-8.91c-1.76,0-2.76-1.54-1.95-3.16.84-1.67,1.79-3.31,2.75-4.91,3.98-6.53,7.98-13.03,11.97-19.56.33-.55.7-.76,1.35-.73,2.05.09,4.1.09,6.14.13,1.35.03,1.72.53,1.26,1.83-1.65,4.67-3.34,9.32-5,13.98-.12.36-.21.73-.36,1.22h3.25c2.06,0,4.1.03,6.14,0,.81-.02,1.44.22,1.77.95.37.82.55,1.65-.08,2.46Z"/>
        <path class="cls-3" d="M75.18,50.59c-.75-1.64-2.29-2.59-4.23-2.59h-.13c-.86.02-1.72.02-2.58.02h-2.88l.91-2.51c1.06-2.99,2.14-5.98,3.2-8.97.55-1.54.45-2.86-.28-3.91-.74-1.06-1.93-1.62-3.55-1.65l-1.84-.03c-1.41-.02-2.83-.05-4.24-.1h-.22c-1.08-.01-2.6.36-3.64,2.08-1.86,3.05-3.72,6.09-5.6,9.15-2.12,3.46-4.24,6.92-6.35,10.39-1.18,1.92-2.09,3.56-2.87,5.14-.81,1.61-.76,3.43.12,4.88.9,1.43,2.51,2.3,4.32,2.3h5.04l-1.99,5.71c-.79,2.23-1.57,4.45-2.33,6.68-.45,1.33-.31,2.64.42,3.67.72,1.02,1.9,1.6,3.32,1.63h.21s.93,0,.93,0c.13,0,.26,0,.39.01.13,0,.26,0,.39,0,.96,0,2.34-.31,3.47-1.75,2.39-3.02,4.78-6.04,7.17-9.05,1.91-2.39,3.8-4.8,5.7-7.18,1.33-1.69,2.65-3.41,3.98-5.11.92-1.16,1.82-2.32,2.73-3.49.82-1.05,1.56-2.81.43-5.33ZM72.56,54.2c-2.24,2.85-4.46,5.73-6.71,8.58-4.28,5.42-8.59,10.82-12.87,16.24-.4.5-.81.73-1.45.68-.57-.05-1.14,0-1.71-.01-1.03-.02-1.48-.63-1.13-1.61,1.04-3.07,2.13-6.13,3.19-9.21.71-2.02,1.41-4.06,2.13-6.08.07-.21.13-.43.22-.79h-8.91c-1.76,0-2.76-1.54-1.95-3.16.84-1.67,1.79-3.31,2.75-4.91,3.98-6.53,7.98-13.03,11.97-19.56.33-.55.7-.76,1.35-.73,2.05.09,4.1.09,6.14.13,1.35.03,1.72.53,1.26,1.83-1.65,4.67-3.34,9.32-5,13.98-.12.36-.21.73-.36,1.22h3.25c2.06,0,4.1.03,6.14,0,.81-.02,1.44.22,1.77.95.37.82.55,1.65-.08,2.46Z"/>
      </g>
    </g>
  </g>
</svg>