<?xml version="1.0" encoding="UTF-8"?>
<svg id="Layer_2" data-name="Layer 2" xmlns="http://www.w3.org/2000/svg" xmlns:xlink="http://www.w3.org/1999/xlink" viewBox="0 0 113.36 113.36">
  <defs>
    <style>
      .cls-1 {
        fill: url(#linear-gradient);
      }

      .cls-1, .cls-2 {
        stroke-width: 0px;
      }

      .cls-2 {
        fill: url(#New_Gradient_Swatch_copy_4);
      }
    </style>
    <linearGradient id="linear-gradient" x1="11.86" y1="11.86" x2="119.12" y2="119.12" gradientUnits="userSpaceOnUse">
      <stop offset="0" stop-color="#3d9b65"/>
      <stop offset="1" stop-color="#0b7e5f"/>
    </linearGradient>
    <linearGradient id="New_Gradient_Swatch_copy_4" data-name="New Gradient Swatch copy 4" x1="17.5" y1="20.32" x2="113.26" y2="110.51" gradientUnits="userSpaceOnUse">
      <stop offset="0" stop-color="#d29d42"/>
      <stop offset=".13" stop-color="#ffd679"/>
      <stop offset=".23" stop-color="#fff1ad"/>
      <stop offset=".34" stop-color="#ffcf7b"/>
      <stop offset=".5" stop-color="#d29d42"/>
      <stop offset=".73" stop-color="#ffcb7a"/>
      <stop offset=".87" stop-color="#ddab4e"/>
    </linearGradient>
  </defs>
  <g id="Layer_1-2" data-name="Layer 1">
    <g>
      <path class="cls-1" d="M0,0v113.36h113.36V0H0ZM80.7,48.72c-2.28,5.6-4.7,11.15-6.9,16.78-2.4,6.17-4.46,12.46-6.23,18.85-.25.9-.72,1.59-1.46,2.16-1.65,1.24-3.23,2.56-4.9,3.75-.72.52-1.58.93-2.44,1.16-.65.17-1.42.06-2.11-.08-1.21-.24-2.42-.55-3.59-.94-1.79-.59-2.86-2.57-2.41-4.4.64-2.58,1.33-5.14,2-7.71.02-.06.03-.12.04-.15-3.01-.75-5.99-1.5-9.07-2.27-.27.53-.58,1.13-.9,1.72-.73,1.34-1.42,2.72-2.23,4.01-.82,1.32-2.07,2.07-3.65,1.96-.9-.06-1.8-.38-2.69-.59-.45-.1-.9-.21-1.35-.33-1.54-.42-2.27-1.51-2.54-3.02-.15-.82-.03-1.59.28-2.33,1-2.4,1.99-4.79,3.04-7.17,2.03-4.63,4.07-9.27,6.17-13.88,3.57-7.83,7.3-15.58,11.39-23.15,1.48-2.73,3.1-5.38,4.71-8.04.53-.89,1.27-1.64,2.33-1.87,2.12-.46,4.34.45,4.79,3.37.44,2.9.93,5.78,1.4,8.67.11.65-.07.97-.7,1.14-.47.13-.96.21-1.43.36-.23.08-.43.25-.65.38.02.06.05.11.07.17,1.53.36,3.07.7,4.59,1.08.45.12.64-.03.86-.41,1.54-2.74,3.08-5.47,4.69-8.17.44-.74,1.01-1.45,1.67-2,1.21-1.01,2.61-.91,3.95-.24,1.18.59,1.76,1.62,1.89,2.95.23,2.62.5,5.23.81,7.84.32,2.72.76,5.42,1.03,8.14.07.73-.17,1.56-.46,2.26Z"/>
      <path class="cls-2" d="M75.11,31.93c-.22.15-.37.33-.48.53-.41.72-.83,1.44-1.21,2.18-1.51,2.92-3.02,5.86-4.51,8.8-.17.33-.36.39-.72.31-3.94-.89-7.89-1.77-11.83-2.65-.7-.15-1.4-.33-2.19-.52.31-.6.57-1.1.84-1.6,1.31-2.4,2.58-4.81,3.94-7.17.33-.57.42-1.1.34-1.71-.06-.47-.1-.95-.16-1.42-.05-.44-.11-.88-.17-1.43-9.53,16.64-17.36,33.95-24.73,51.47.82.21,1.62.42,2.45.63.07-.15.14-.3.21-.46,1.09-2.65,2.19-5.3,3.29-7.94.25-.59.33-.61.95-.46,1.91.47,3.83.93,5.74,1.4,3.38.82,6.76,1.66,10.15,2.48.35.08.46.2.35.58-.87,3.05-1.73,6.1-2.58,9.14-.21.77-.38,1.54-.58,2.33.71.17,1.34.32,1.98.47.27-1.12.46-2.22.81-3.27,2.1-6.35,4.13-12.72,6.37-19.01,1.97-5.54,4.12-11.01,6.3-16.45,1.47-3.65,3.12-7.23,4.75-10.81.4-.89.77-1.73.65-2.73-.01-.12.04-.25.04-.38v-2.31ZM58.35,72.21c-1.39-.34-2.72-.65-4.04-.99-4.16-1.08-8.31-2.17-12.46-3.25-.43-.11-.56-.31-.37-.72,1.57-3.42,3.14-6.83,4.7-10.25.23-.51.52-.61,1.05-.48,3.91.93,7.83,1.84,11.76,2.74,1.06.25,2.13.47,3.31.73-1.32,4.07-2.63,8.13-3.95,12.22ZM67.63,46.77c-.6,1.43-1.18,2.86-1.75,4.29-.76,1.9-1.49,3.8-2.24,5.69-.08.22-.2.44-.33.63-.07.1-.2.15-.27.21-1.35-.33-2.61-.64-3.88-.96-3.66-.91-7.31-1.84-10.97-2.75-.32-.08-.61-.12-.37-.58,1.67-3.32,3.34-6.63,4.99-9.96.18-.37.4-.48.78-.4,4.43,1.01,8.87,2.01,13.31,3.02.12.03.24.07.37.1.41.09.53.29.36.71ZM76.87,47.98c-4.6,10.15-8.57,20.53-11.65,31.25-.32,1.11-.62,2.23-.92,3.36-.11.43-.32.77-.7,1.04-.74.51-1.46,1.06-2.19,1.59-.05-.03-.1-.06-.15-.09,4.1-14.38,8.88-28.5,15.44-42.01.16.98.27,1.96.47,2.93.15.71-.02,1.3-.3,1.93ZM56.89,64.69c-.14.44.11.06-.06.57-.19.58-.39,1.15-.57,1.73-.07.25-.19.33-.44.27-2.62-.66-3.71-.92-6.34-1.57-.07-.02-.14-.05-.23-.09.52-1.22.61-1.52,1.1-2.67,2.71.72,3.83,1.04,6.54,1.76ZM62.15,50.47c-.44,1.1-.38,1.14-.82,2.24-2.36-.55-3.6-.94-5.96-1.49.54-1.09.6-1.12,1.11-2.14,2.26.52,3.38.87,5.67,1.39Z"/>
    </g>
  </g>
</svg>