<?xml version="1.0" encoding="UTF-8"?>
<svg id="Layer_2" data-name="Layer 2" xmlns="http://www.w3.org/2000/svg" xmlns:xlink="http://www.w3.org/1999/xlink" viewBox="0 0 113.36 113.35">
  <defs>
    <style>
      .cls-1 {
        fill: url(#New_Gradient_Swatch_copy_4-9);
      }

      .cls-1, .cls-2, .cls-3, .cls-4, .cls-5, .cls-6, .cls-7, .cls-8, .cls-9, .cls-10, .cls-11, .cls-12, .cls-13, .cls-14, .cls-15, .cls-16, .cls-17, .cls-18, .cls-19 {
        stroke-width: 0px;
      }

      .cls-2 {
        fill: url(#linear-gradient);
      }

      .cls-3 {
        fill: url(#New_Gradient_Swatch_copy_4-8);
      }

      .cls-4 {
        fill: url(#linear-gradient-6);
      }

      .cls-5 {
        fill: url(#New_Gradient_Swatch_copy_4-5);
      }

      .cls-6 {
        fill: url(#linear-gradient-5);
      }

      .cls-7 {
        fill: url(#New_Gradient_Swatch_copy_4-4);
      }

      .cls-8 {
        fill: url(#linear-gradient-2);
      }

      .cls-9 {
        fill: url(#linear-gradient-7);
      }

      .cls-10 {
        fill: url(#New_Gradient_Swatch_copy_4-6);
      }

      .cls-11 {
        fill: url(#linear-gradient-3);
      }

      .cls-12 {
        fill: url(#New_Gradient_Swatch_copy_4-7);
      }

      .cls-13 {
        fill: url(#linear-gradient-9);
      }

      .cls-14 {
        fill: url(#New_Gradient_Swatch_copy_4);
      }

      .cls-15 {
        fill: url(#New_Gradient_Swatch_copy_4-10);
      }

      .cls-16 {
        fill: url(#linear-gradient-8);
      }

      .cls-17 {
        fill: url(#New_Gradient_Swatch_copy_4-2);
      }

      .cls-18 {
        fill: url(#New_Gradient_Swatch_copy_4-3);
      }

      .cls-19 {
        fill: url(#linear-gradient-4);
      }
    </style>
    <linearGradient id="linear-gradient" x1="28.18" y1="61.82" x2="34.24" y2="68.48" gradientUnits="userSpaceOnUse">
      <stop offset="0" stop-color="#a38fc3"/>
      <stop offset="1" stop-color="#4c2d80"/>
    </linearGradient>
    <linearGradient id="New_Gradient_Swatch_copy_4" data-name="New Gradient Swatch copy 4" x1="28.59" y1="62.24" x2="33.51" y2="67.7" gradientUnits="userSpaceOnUse">
      <stop offset="0" stop-color="#d29d42"/>
      <stop offset=".13" stop-color="#ffd679"/>
      <stop offset=".23" stop-color="#fff1ad"/>
      <stop offset=".34" stop-color="#ffcf7b"/>
      <stop offset=".5" stop-color="#d29d42"/>
      <stop offset=".73" stop-color="#ffcb7a"/>
      <stop offset=".87" stop-color="#ddab4e"/>
    </linearGradient>
    <linearGradient id="New_Gradient_Swatch_copy_4-2" data-name="New Gradient Swatch copy 4" x1="40.1" y1="47.85" x2="42.82" y2="50.87" xlink:href="#New_Gradient_Swatch_copy_4"/>
    <linearGradient id="New_Gradient_Swatch_copy_4-3" data-name="New Gradient Swatch copy 4" x1="41.87" y1="52.48" x2="49.57" y2="61.04" xlink:href="#New_Gradient_Swatch_copy_4"/>
    <linearGradient id="New_Gradient_Swatch_copy_4-4" data-name="New Gradient Swatch copy 4" x1="48.63" y1="62.65" x2="51.34" y2="65.66" xlink:href="#New_Gradient_Swatch_copy_4"/>
    <linearGradient id="New_Gradient_Swatch_copy_4-5" data-name="New Gradient Swatch copy 4" x1="49.71" y1="70.62" x2="55.99" y2="77.59" xlink:href="#New_Gradient_Swatch_copy_4"/>
    <linearGradient id="New_Gradient_Swatch_copy_4-6" data-name="New Gradient Swatch copy 4" x1="59.22" y1="64.98" x2="63.49" y2="69.73" xlink:href="#New_Gradient_Swatch_copy_4"/>
    <linearGradient id="New_Gradient_Swatch_copy_4-7" data-name="New Gradient Swatch copy 4" x1="56.66" y1="46.61" x2="66.1" y2="57.1" xlink:href="#New_Gradient_Swatch_copy_4"/>
    <linearGradient id="New_Gradient_Swatch_copy_4-8" data-name="New Gradient Swatch copy 4" x1="45.39" y1="48.51" x2="75.43" y2="81.9" xlink:href="#New_Gradient_Swatch_copy_4"/>
    <linearGradient id="linear-gradient-2" x1="39.88" y1="47.63" x2="43.21" y2="51.29" xlink:href="#linear-gradient"/>
    <linearGradient id="linear-gradient-3" x1="41.28" y1="51.88" x2="50.64" y2="62.18" xlink:href="#linear-gradient"/>
    <linearGradient id="linear-gradient-4" x1="48.41" y1="62.42" x2="51.74" y2="66.08" xlink:href="#linear-gradient"/>
    <linearGradient id="linear-gradient-5" x1="49.23" y1="70.12" x2="56.87" y2="78.53" xlink:href="#linear-gradient"/>
    <linearGradient id="linear-gradient-6" x1="58.9" y1="64.65" x2="64.08" y2="70.35" xlink:href="#linear-gradient"/>
    <linearGradient id="linear-gradient-7" x1="55.97" y1="45.91" x2="67.38" y2="58.46" xlink:href="#linear-gradient"/>
    <linearGradient id="linear-gradient-8" x1="43.25" y1="46.24" x2="79.65" y2="86.28" xlink:href="#linear-gradient"/>
    <linearGradient id="linear-gradient-9" x1="-4.85" y1="-11" x2="125" y2="131.82" xlink:href="#linear-gradient"/>
    <linearGradient id="New_Gradient_Swatch_copy_4-9" data-name="New Gradient Swatch copy 4" x1="7.13" y1="24.21" x2="84.08" y2="98.06" xlink:href="#New_Gradient_Swatch_copy_4"/>
    <linearGradient id="New_Gradient_Swatch_copy_4-10" data-name="New Gradient Swatch copy 4" x1="31.02" y1="32.54" x2="87.68" y2="95.51" xlink:href="#New_Gradient_Swatch_copy_4"/>
  </defs>
  <g id="Layer_1-2" data-name="Layer 1">
    <g>
      <path class="cls-2" d="M41.97,60.09c-.36.22-.69.43-1.02.63-.16.1-.31.19-.47.29-6,3.66-12,7.3-17.98,10.98-.61.37-.9.3-1.18-.32-.22-.48-.49-.93-.78-1.36-.33-.48-.24-.73.27-1,2.98-1.62,5.95-3.26,8.93-4.9,3.58-1.96,7.15-3.92,10.73-5.88.12-.07.24-.12.45-.23.25.42.48.82.72,1.23.11.19.22.37.33.56Z"/>
      <path class="cls-14" d="M40.48,61.01c-6,3.66-12,7.3-17.98,10.98-.61.37-.9.3-1.18-.32-.22-.48-.49-.93-.78-1.36-.33-.48-.24-.73.27-1,2.98-1.62,5.95-3.26,8.93-4.9,3.58-1.96,7.15-3.92,10.73-5.88.12-.07.24-.12.45-.23.25.42.48.82.72,1.23.11.19.22.37.33.56-.36.22-.69.43-1.02.63-.16.1-.31.19-.47.29Z"/>
      <path class="cls-17" d="M37.54,52.78c-.33-.58-.65-1.12-1-1.72,2.97-1.71,5.88-3.4,8.85-5.11.33.58.63,1.1.99,1.71-2.95,1.71-5.86,3.39-8.84,5.12Z"/>
      <path class="cls-18" d="M46.16,51.74c.35.83.73,1.64,1.14,2.43.33.66.69,1.3,1.08,1.93.35.58.73,1.15,1.12,1.71.47.66.97,1.31,1.5,1.95-1.36.78-2.66,1.54-3.98,2.3-.44.25-.88.51-1.33.76-.16-.42-.33-.84-.5-1.26-.3-.71-.63-1.4-.98-2.08-.38-.76-.8-1.5-1.25-2.22-.74-1.21-1.58-2.38-2.51-3.51,1.79-1.04,3.5-2.02,5.29-3.06.13.35.27.71.42,1.05Z"/>
      <path class="cls-7" d="M53.91,60.74c.34.57.64,1.1,1,1.71-2.94,1.7-5.87,3.39-8.85,5.11-.35-.6-.65-1.13-.99-1.71,2.96-1.71,5.88-3.4,8.84-5.11Z"/>
      <path class="cls-5" d="M58.16,72.76c.36,0,.55.1.6.48.03.18.06.35.1.53.07.33.15.67.23,1.03h-12.47c.08-.35.15-.7.23-1.03.05-.23.11-.46.17-.68.05-.15.32-.31.49-.31,3.55-.02,7.1-.01,10.65-.02Z"/>
      <path class="cls-10" d="M58.18,67.32c.01-1.75,1.43-3.18,3.17-3.18,1.75-.01,3.2,1.46,3.2,3.24-.01,1.73-1.46,3.18-3.19,3.19-1.76,0-3.2-1.45-3.18-3.25Z"/>
      <path class="cls-12" d="M58.61,57.64c-.12-3.4-.26-6.79-.39-10.19h-.04c.03-.54-.02-1.1.1-1.63.37-1.59,1.94-2.43,3.84-2.1,1.48.26,2.45,1.4,2.4,2.94-.11,3.69-.25,7.38-.4,11.07-.07,1.58-1.35,2.74-2.88,2.69-1.47-.05-2.58-1.25-2.63-2.78Z"/>
      <path class="cls-3" d="M83.3,74.39c-1.15,2-3.22,3.2-5.54,3.2h-32.97c-2.31,0-4.38-1.2-5.54-3.2-1.15-2.01-1.15-4.4.02-6.4l3.18-5.48c.16-.1.32-.2.48-.3.18.41.32.77.49,1.11.21.4.24.68-.13,1.07-.39.42-.58.9-.58,1.4l-1.98,3.4c-.78,1.33-.79,2.93-.02,4.27.71,1.24,1.95,2.02,3.36,2.13-.17,1.08.3,1.58,1.47,1.58h7.32c2.46,0,4.92.01,7.38,0,1.1,0,1.6-.55,1.41-1.57h1.33c.21.24.52.35.92.35h7.12c2.26,0,4.52,0,6.78-.01.3,0,.6-.01.88-.07,3.31-.73,4.82-4.16,3.1-7.15-5.4-9.39-10.82-18.76-16.26-28.12-.33-.58-.8-1.14-1.32-1.55-2.24-1.75-5.46-1.11-6.93,1.38-2.26,3.85-4.48,7.73-6.71,11.6-.07.12-.13.24-.18.37-.07.16-.1.31-.1.45l-.56.96c-.37-.67-.71-1.35-1.03-2.04l2.28-3.93,4.78-8.23c1.16-1.99,3.23-3.18,5.53-3.18s4.21,1.1,5.39,2.95h0c.11.16.2.32.3.48,1.3,2.25,2.61,4.51,3.91,6.77.03.04.06.09.09.14l12.32,21.22c1.16,2,1.17,4.39.01,6.4Z"/>
      <path class="cls-8" d="M46.38,47.66c-2.95,1.71-5.86,3.39-8.84,5.12-.33-.58-.65-1.12-1-1.72,2.97-1.71,5.88-3.4,8.85-5.11.33.58.63,1.1.99,1.71Z"/>
      <path class="cls-11" d="M51,59.76c-1.36.78-2.66,1.54-3.98,2.3-.44.25-.88.51-1.33.76-.16-.42-.33-.84-.5-1.26-.3-.71-.63-1.4-.98-2.08-.38-.76-.8-1.5-1.25-2.22-.74-1.21-1.58-2.38-2.51-3.51,1.79-1.04,3.5-2.02,5.29-3.06.13.35.27.71.42,1.05.35.83.73,1.64,1.14,2.43.33.66.69,1.3,1.08,1.93.35.58.73,1.15,1.12,1.71.47.66.97,1.31,1.5,1.95Z"/>
      <path class="cls-19" d="M54.91,62.45c-2.94,1.7-5.87,3.39-8.85,5.11-.35-.6-.65-1.13-.99-1.71,2.96-1.71,5.88-3.4,8.84-5.11.34.57.64,1.1,1,1.71Z"/>
      <path class="cls-6" d="M59.09,74.8h-12.47c.08-.35.15-.7.23-1.03.05-.23.11-.46.17-.68.05-.15.32-.31.49-.31,3.55-.02,7.1-.01,10.65-.02.36,0,.55.1.6.48.03.18.06.35.1.53.07.33.15.67.23,1.03Z"/>
      <path class="cls-4" d="M64.55,67.38c-.01,1.73-1.46,3.18-3.19,3.19-1.76,0-3.2-1.45-3.18-3.25.01-1.75,1.43-3.18,3.17-3.18,1.75-.01,3.2,1.46,3.2,3.24Z"/>
      <path class="cls-9" d="M64.52,46.66c-.11,3.69-.25,7.38-.4,11.07-.07,1.58-1.35,2.74-2.88,2.69-1.47-.05-2.58-1.25-2.63-2.78-.12-3.4-.26-6.79-.39-10.19h-.04c.03-.54-.02-1.1.1-1.63.37-1.59,1.94-2.43,3.84-2.1,1.48.26,2.45,1.4,2.4,2.94Z"/>
      <path class="cls-16" d="M83.3,74.39c-1.15,2-3.22,3.2-5.54,3.2h-32.97c-2.31,0-4.38-1.2-5.54-3.2-1.15-2.01-1.15-4.4.02-6.4l3.18-5.48c.16-.1.32-.2.48-.3.18.41.32.77.49,1.11.21.4.24.68-.13,1.07-.39.42-.58.9-.58,1.4l-1.98,3.4c-.78,1.33-.79,2.93-.02,4.27.71,1.24,1.95,2.02,3.36,2.13-.17,1.08.3,1.58,1.47,1.58h7.32c2.46,0,4.92.01,7.38,0,1.1,0,1.6-.55,1.41-1.57h1.33c.21.24.52.35.92.35h7.12c2.26,0,4.52,0,6.78-.01.3,0,.6-.01.88-.07,3.31-.73,4.82-4.16,3.1-7.15-5.4-9.39-10.82-18.76-16.26-28.12-.33-.58-.8-1.14-1.32-1.55-2.24-1.75-5.46-1.11-6.93,1.38-2.26,3.85-4.48,7.73-6.71,11.6-.07.12-.13.24-.18.37-.07.16-.1.31-.1.45l-.56.96c-.37-.67-.71-1.35-1.03-2.04l2.28-3.93,4.78-8.23c1.16-1.99,3.23-3.18,5.53-3.18s4.21,1.1,5.39,2.95h0c.11.16.2.32.3.48,1.3,2.25,2.61,4.51,3.91,6.77.03.04.06.09.09.14l12.32,21.22c1.16,2,1.17,4.39.01,6.4Z"/>
      <path class="cls-13" d="M0,0v113.35h113.36V0H0ZM87.51,77.08c-2.02,3.51-5.64,5.61-9.7,5.61h-32.97c-4.05,0-7.67-2.1-9.69-5.61-1.05-1.83-1.55-3.84-1.5-5.84-.52.32-8.62,5.26-8.62,5.26-1.1.67-2.18,1-3.22,1-1.31,0-3.17-.51-4.6-2.97-.32-.55-.64-1.11-.97-1.68-1-1.78-.89-3.26-.63-4.2.27-.93.96-2.24,2.72-3.22,3.29-1.8,13.84-7.6,13.84-7.6.7-.38,1.39-.76,2.08-1.14-.29-.28-.56-.6-.79-.95-.44-.71-.84-1.41-1.23-2.16-1.22-2.3-.46-5.04,1.77-6.36,3.04-1.78,6.09-3.54,9.15-5.28.74-.42,1.54-.62,2.34-.62,1.2,0,2.35.46,3.22,1.28l2.95-5.09c.88-1.49,2.02-2.71,3.39-3.64l.11-.07c1.82-1.22,3.96-1.86,6.17-1.86,1.97,0,3.91.52,5.59,1.49,1.69.97,3.1,2.39,4.08,4.1l16.48,28.36c2.04,3.5,2.05,7.68.03,11.19Z"/>
      <g>
        <path class="cls-1" d="M62.12,43.72c-1.9-.33-3.47.51-3.84,2.1-.12.53-.07,1.09-.1,1.63h.04c.13,3.4.27,6.79.39,10.19.05,1.53,1.16,2.73,2.63,2.78,1.53.05,2.81-1.11,2.88-2.69.15-3.69.29-7.38.4-11.07.05-1.54-.92-2.68-2.4-2.94ZM61.35,64.14c-1.74,0-3.16,1.43-3.17,3.18-.02,1.8,1.42,3.25,3.18,3.25,1.73-.01,3.18-1.46,3.19-3.19,0-1.78-1.45-3.25-3.2-3.24ZM58.86,73.77c-.04-.18-.07-.35-.1-.53-.05-.38-.24-.48-.6-.48-3.55,0-7.1,0-10.65.02-.17,0-.44.16-.49.31-.06.22-.12.45-.17.68-.08.33-.15.68-.23,1.03h12.47c-.08-.36-.16-.7-.23-1.03ZM53.91,60.74c-2.96,1.71-5.88,3.4-8.84,5.11.34.58.64,1.11.99,1.71,2.98-1.72,5.91-3.41,8.85-5.11-.36-.61-.66-1.14-1-1.71ZM49.5,57.81c-.39-.56-.77-1.13-1.12-1.71-.39-.63-.75-1.27-1.08-1.93-.41-.79-.79-1.6-1.14-2.43-.15-.34-.29-.7-.42-1.05-1.79,1.04-3.5,2.02-5.29,3.06.93,1.13,1.77,2.3,2.51,3.51.45.72.87,1.46,1.25,2.22.35.68.68,1.37.98,2.08.17.42.34.84.5,1.26.45-.25.89-.51,1.33-.76,1.32-.76,2.62-1.52,3.98-2.3-.53-.64-1.03-1.29-1.5-1.95ZM45.39,45.95c-2.97,1.71-5.88,3.4-8.85,5.11.35.6.67,1.14,1,1.72,2.98-1.73,5.89-3.41,8.84-5.12-.36-.61-.66-1.13-.99-1.71ZM41.64,59.53c-.24-.41-.47-.81-.72-1.23-.21.11-.33.16-.45.23-3.58,1.96-7.15,3.92-10.73,5.88-2.98,1.64-5.95,3.28-8.93,4.9-.51.27-.6.52-.27,1,.29.43.56.88.78,1.36.28.62.57.69,1.18.32,5.98-3.68,11.98-7.32,17.98-10.98.16-.1.31-.19.47-.29.33-.2.66-.41,1.02-.63-.11-.19-.22-.37-.33-.56Z"/>
        <path class="cls-15" d="M83.3,74.39c-1.15,2-3.22,3.2-5.54,3.2h-32.97c-2.31,0-4.38-1.2-5.54-3.2-1.15-2.01-1.15-4.4.02-6.4l3.18-5.48c.16-.1.32-.2.48-.3.18.41.32.77.49,1.11.21.4.24.68-.13,1.07-.39.42-.58.9-.58,1.4l-1.98,3.4c-.78,1.33-.79,2.93-.02,4.27.71,1.24,1.95,2.02,3.36,2.13-.17,1.08.3,1.58,1.47,1.58h7.32c2.46,0,4.92.01,7.38,0,1.1,0,1.6-.55,1.41-1.57h1.33c.21.24.52.35.92.35h7.12c2.26,0,4.52,0,6.78-.01.3,0,.6-.01.88-.07,3.31-.73,4.82-4.16,3.1-7.15-5.4-9.39-10.82-18.76-16.26-28.12-.33-.58-.8-1.14-1.32-1.55-2.24-1.75-5.46-1.11-6.93,1.38-2.26,3.85-4.48,7.73-6.71,11.6-.07.12-.13.24-.18.37-.07.16-.1.31-.1.45l-.56.96c-.37-.67-.71-1.35-1.03-2.04l2.28-3.93,4.78-8.23c1.16-1.99,3.23-3.18,5.53-3.18s4.21,1.1,5.39,2.95h0c.11.16.2.32.3.48,1.3,2.25,2.61,4.51,3.91,6.77.03.04.06.09.09.14l12.32,21.22c1.16,2,1.17,4.39.01,6.4Z"/>
      </g>
    </g>
  </g>
</svg>