<?xml version="1.0" encoding="UTF-8"?>
<svg id="Layer_2" data-name="Layer 2" xmlns="http://www.w3.org/2000/svg" xmlns:xlink="http://www.w3.org/1999/xlink" viewBox="0 0 113.36 113.36">
  <defs>
    <style>
      .cls-1 {
        fill: url(#linear-gradient);
      }

      .cls-1, .cls-2, .cls-3, .cls-4, .cls-5 {
        stroke-width: 0px;
      }

      .cls-2 {
        fill: url(#linear-gradient-2);
      }

      .cls-3 {
        fill: url(#linear-gradient-3);
      }

      .cls-4 {
        fill: url(#New_Gradient_Swatch_copy_4);
      }

      .cls-5 {
        fill: url(#linear-gradient-4);
      }
    </style>
    <linearGradient id="linear-gradient" x1="49.8" y1="30.16" x2="66.12" y2="48.11" gradientUnits="userSpaceOnUse">
      <stop offset="0" stop-color="#ec8759"/>
      <stop offset=".63" stop-color="#cd6628"/>
      <stop offset="1" stop-color="#d65b45"/>
    </linearGradient>
    <linearGradient id="linear-gradient-2" x1="-4.85" y1="-11" x2="125" y2="131.83" xlink:href="#linear-gradient"/>
    <linearGradient id="linear-gradient-3" x1="65.74" y1="59.96" x2="68.57" y2="63.08" xlink:href="#linear-gradient"/>
    <linearGradient id="linear-gradient-4" x1="69.42" y1="62.72" x2="74.73" y2="68.57" xlink:href="#linear-gradient"/>
    <linearGradient id="New_Gradient_Swatch_copy_4" data-name="New Gradient Swatch copy 4" x1="34.66" y1="32.27" x2="90.45" y2="80.89" gradientUnits="userSpaceOnUse">
      <stop offset="0" stop-color="#d29d42"/>
      <stop offset=".13" stop-color="#ffd679"/>
      <stop offset=".23" stop-color="#fff1ad"/>
      <stop offset=".34" stop-color="#ffcf7b"/>
      <stop offset=".5" stop-color="#d29d42"/>
      <stop offset=".73" stop-color="#ffcb7a"/>
      <stop offset=".87" stop-color="#ddab4e"/>
    </linearGradient>
  </defs>
  <g id="Layer_1-2" data-name="Layer 1">
    <g>
      <g>
        <rect class="cls-1" x="43.89" y="36.06" width="27.28" height="5.21" rx="2.51" ry="2.51"/>
        <path class="cls-2" d="M0,0v113.36h113.36V0H0ZM43.52,79.48c-3.17,0-5.75-2.57-5.75-5.75v-37.67c0-3.18,2.58-5.75,5.75-5.75h27.1c3.17,0,5.75,2.57,5.75,5.75v13.47c-1.41-.39-2.89-.6-4.42-.6-.41,0-.81.01-1.21.05.27-.4.43-.89.43-1.41v-.18c0-1.39-1.12-2.52-2.51-2.52h-22.25c-1.39,0-2.52,1.13-2.52,2.52v.18c0,1.39,1.13,2.52,2.52,2.52h19.39c-2.22.87-4.21,2.2-5.85,3.88h-13.54c-1.39,0-2.52,1.12-2.52,2.51v.19c0,1.39,1.13,2.51,2.52,2.51h10.09c-.53,1.25-.9,2.58-1.08,3.97h-9.01c-1.39,0-2.52,1.13-2.52,2.51v.19c0,1.39,1.13,2.52,2.52,2.52h9.09c.8,4.65,3.47,8.63,7.2,11.11h-19.18ZM73.43,78.74c-.53.07-1.07.1-1.62.1-6.32-.02-11.56-4.47-12.85-10.47-.21-.94-.32-1.92-.32-2.93,0-.78.07-1.55.22-2.29.25-1.41.73-2.75,1.41-3.97,1.21-2.19,3.04-4,5.25-5.21,1.9-1.05,4.09-1.64,6.42-1.64,1.56,0,3.05.27,4.43.76,5.15,1.82,8.8,6.75,8.79,12.58-.01,6.75-5.12,12.3-11.73,13.07ZM74.63,59.25c-.64,0-1.15.27-1.47.81-.83,1.38-1.65,2.75-2.48,4.13-.83,1.39-1.66,2.78-2.48,4.18-.14.23-.27.46-.41.69-.2.34-.3.81-.26,1.2.09.8.64,1.31,1.43,1.48.68.13,1.4-.2,1.82-.88.77-1.27,1.53-2.55,2.3-3.83,1.01-1.7,2.04-3.4,3.05-5.11.13-.23.21-.48.24-.71.03-.16.03-.32,0-.47-.1-.82-.79-1.5-1.74-1.49ZM68.85,61.46c0-.94-.81-1.78-1.75-1.78-.95-.01-1.77.8-1.78,1.75-.02.93.81,1.77,1.75,1.78.94,0,1.77-.81,1.78-1.75Z"/>
        <path class="cls-3" d="M67.07,63.21c-.94-.01-1.77-.85-1.75-1.78.01-.95.83-1.76,1.78-1.75.94,0,1.76.84,1.75,1.78-.01.94-.84,1.75-1.78,1.75Z"/>
        <path class="cls-5" d="M76.37,60.74c.03.15.03.31,0,.47-.03.23-.11.48-.24.71-1.01,1.71-2.04,3.41-3.05,5.11-.77,1.28-1.53,2.56-2.3,3.83-.42.68-1.14,1.01-1.82.88-.79-.17-1.34-.68-1.43-1.48-.04-.39.06-.86.26-1.2.14-.23.27-.46.41-.69.82-1.4,1.65-2.79,2.48-4.18.83-1.38,1.65-2.75,2.48-4.13.32-.54.83-.81,1.47-.81.95-.01,1.64.67,1.74,1.49Z"/>
      </g>
      <path class="cls-4" d="M71.17,38.57v.19c0,1.39-1.12,2.51-2.51,2.51h-22.25c-1.39,0-2.52-1.12-2.52-2.51v-.19c0-1.39,1.13-2.51,2.52-2.51h22.25c1.39,0,2.51,1.12,2.51,2.51ZM78.09,70.01c0,.91-.81,1.73-1.72,1.75-.02,0-.03,0-.05,0-.95,0-1.77-.83-1.76-1.77,0-.95.83-1.77,1.77-1.76h.04c.92.02,1.72.83,1.72,1.77ZM74.63,59.25c-.64,0-1.15.27-1.47.81-.83,1.38-1.65,2.75-2.48,4.13-.83,1.39-1.66,2.78-2.48,4.18-.14.23-.27.46-.41.69-.2.34-.3.81-.26,1.2.09.8.64,1.31,1.43,1.48.68.13,1.4-.2,1.82-.88.77-1.27,1.53-2.55,2.3-3.83,1.01-1.7,2.04-3.4,3.05-5.11.13-.23.21-.48.24-.71.03-.16.03-.32,0-.47-.1-.82-.79-1.5-1.74-1.49ZM67.1,59.68c-.95-.01-1.77.8-1.78,1.75-.02.93.81,1.77,1.75,1.78.94,0,1.77-.81,1.78-1.75,0-.94-.81-1.78-1.75-1.78ZM68.61,44.81h-22.25c-1.39,0-2.52,1.13-2.52,2.52v.18c0,1.39,1.13,2.52,2.52,2.52h19.39c1.55-.61,3.21-1,4.94-1.11.27-.4.43-.89.43-1.41v-.18c0-1.39-1.12-2.52-2.51-2.52ZM55.2,65.34c0-.76.05-1.52.17-2.25h-9.01c-1.39,0-2.52,1.13-2.52,2.51v.19c0,1.39,1.13,2.52,2.52,2.52h9.09c-.16-.96-.25-1.96-.25-2.97ZM46.36,53.91c-1.39,0-2.52,1.12-2.52,2.51v.19c0,1.39,1.13,2.51,2.52,2.51h10.09c.81-1.95,1.99-3.72,3.45-5.21h-13.54Z"/>
    </g>
  </g>
</svg>