<?xml version="1.0" encoding="UTF-8"?>
<svg id="Layer_2" data-name="Layer 2" xmlns="http://www.w3.org/2000/svg" viewBox="0 0 531.46 531.46">
  <defs>
    <style>
      .cls-1 {
        fill: #ffe261;
        stroke-width: 0px;
      }
    </style>
  </defs>
  <g id="Layer_1-2" data-name="Layer 1">
    <g>
      <path class="cls-1" d="M362.66,223.04h-.8c-5.25.1-10.95.15-17.98.15-4.07,0-8.12-.01-12.17-.03-4.09-.01-8.2-.02-12.29-.02h-4.08c3.07-8.56,6.14-17.13,9.21-25.69,7.29-20.33,14.85-41.38,22.2-62.1,1.15-3.27,4.69-13.23-1.27-21.83-5.93-8.57-16.44-8.78-19.89-8.86-4.32-.07-8.65-.15-12.96-.21-9.68-.15-19.7-.3-29.44-.7-.44-.01-.88-.01-1.31-.01-8.72,0-15.52,3.89-20.2,11.58-13.15,21.55-26.34,43.08-39.51,64.59-14.33,23.37-29.14,47.55-43.64,71.37-8.07,13.26-14.33,24.46-19.72,35.28-4.69,9.39-4.45,19.91.62,28.15,5.12,8.26,14.44,13.2,24.94,13.2h43.45c-2.02,5.78-14.5,41.59-16.53,47.37-5.34,15.3-10.87,31.13-16.23,46.75-3.44,10.02-.16,16.91,2.1,20.13,2.26,3.23,7.65,8.67,18.28,8.83.5,0,.97,0,1.45,0,1.16,0,2.33,0,3.49-.04.99-.02,1.99-.03,2.99-.03,1.27,0,2.27.03,3.15.1.78.06,1.54.09,2.26.09,7.75,0,14.31-3.33,19.47-9.89,16.59-21.05,33.54-42.4,49.93-63.07,13.2-16.63,26.39-33.24,39.55-49.88,9.21-11.69,18.48-23.58,27.44-35.09,6.42-8.25,12.83-16.48,19.27-24.69,6.82-8.71,7.59-19.1,2.26-30.88-2.46-5.46-8.86-14.58-24.01-14.58ZM369.32,259.8c-14.74,18.8-29.32,37.72-44.13,56.46-28.16,35.63-56.47,71.13-84.58,106.79-2.62,3.32-5.38,4.78-9.54,4.45-3.74-.3-7.52-.01-11.28-.07-6.7-.11-9.67-4.11-7.46-10.55,6.93-20.22,14.02-40.38,21.06-60.56,4.65-13.33,9.31-26.66,13.94-40,.5-1.43.85-2.92,1.51-5.25-20.25,0-39.43,0-58.62,0-11.53,0-18.11-10.1-12.82-20.72,5.52-11.06,11.7-21.83,18.14-32.4,26.11-42.89,52.47-85.64,78.6-128.52,2.22-3.63,4.63-5.04,8.97-4.86,13.44.56,26.9.6,40.36.87,8.87.18,11.31,3.5,8.28,12.06-10.87,30.68-21.92,61.29-32.87,91.94-.84,2.34-1.42,4.78-2.37,8.01,7.66,0,14.53,0,21.39,0,13.46,0,26.92.18,40.38-.09,5.34-.11,9.4,1.42,11.61,6.31,2.43,5.37,3.61,10.81-.55,16.12Z"/>
      <path class="cls-1" d="M0,0v531.46h531.46V0H0ZM400.32,280.98c-6.42,8.19-12.82,16.41-19.2,24.62l-.39.5c-9.19,11.8-18.19,23.34-27.16,34.72-13.17,16.66-26.36,33.28-39.56,49.92l-.41.52c-15.75,19.82-32.66,41.16-49.48,62.5-9.06,11.5-21.28,17.59-35.35,17.59-1.27,0-2.58-.06-3.88-.17-.17,0-.58-.03-1.52-.03-.82,0-1.61.01-2.42.03h-.26c-1.25.03-2.53.04-3.8.04-.61,0-1.23,0-1.85-.02-14.24-.24-26.82-6.59-34.43-17.43-7.6-10.82-9.31-24.77-4.69-38.29,4.95-14.42,9.95-28.76,15.92-45.86,0,0,3.78-10.82,7.51-21.49h-14.97c-17.56,0-33.3-8.52-42.13-22.81-8.81-14.21-9.38-32.1-1.53-47.82,5.64-11.3,12.17-22.97,20.54-36.74,13.39-21.97,27.4-44.85,39.76-65.03l3.92-6.39c13.18-21.52,26.35-43.02,39.48-64.55,8.37-13.74,21.68-21.29,37.47-21.29.72,0,1.45,0,2.22.04,9.82.41,20.36.56,28.83.67,4.36.06,8.72.13,13.07.23,15.88.3,28.38,6.38,36.12,17.56,7.75,11.19,9.03,25.05,3.7,40.09-7.33,20.7-14.98,42.03-21.75,60.87,6.92,0,12.45-.04,17.41-.15h1.19c19.34,0,34.8,9.64,42.43,26.45,8.44,18.68,6.74,37.04-4.77,51.72Z"/>
    </g>
  </g>
</svg>