<?xml version="1.0" encoding="UTF-8"?>
<svg id="Layer_2" data-name="Layer 2" xmlns="http://www.w3.org/2000/svg" xmlns:xlink="http://www.w3.org/1999/xlink" viewBox="0 0 113.36 113.36">
  <defs>
    <style>
      .cls-1 {
        fill: url(#New_Gradient_Swatch_copy_3);
        stroke-width: 0px;
      }
    </style>
    <linearGradient id="New_Gradient_Swatch_copy_3" data-name="New Gradient Swatch copy 3" x1="-11.25" y1="2.68" x2="184.21" y2="158.06" gradientUnits="userSpaceOnUse">
      <stop offset="0" stop-color="#d49e43"/>
      <stop offset=".13" stop-color="#ffd77a"/>
      <stop offset=".23" stop-color="#fff2ae"/>
      <stop offset=".34" stop-color="#ffd17b"/>
      <stop offset=".5" stop-color="#d49e43"/>
      <stop offset=".73" stop-color="#ffcc7b"/>
      <stop offset=".87" stop-color="#deac4f"/>
    </linearGradient>
  </defs>
  <g id="Layer_1-2" data-name="Layer 1">
    <path class="cls-1" d="M78.98,55.91c.01-.62-.37-.71-.87-.71h-5.84c-.31,0-.64.03-.93-.08-.03,2.96.13,5.92-.39,8.86-.54,3.11-1.64,5.99-3.42,8.59.19-.1.42-.16.63-.22,5.98-1.52,9.85-5.76,10.74-11.84.22-1.53.05-3.07.08-4.6ZM43.69,61.38c-.12-2.09-.08-4.18-.13-6.26-.29.11-.62.08-.93.08-1.92,0-3.83.02-5.75-.01-.71-.01-1.02.24-.98.98.08,1.64-.1,3.29.18,4.94.88,5.41,4.97,9.85,10.3,11.17.35.08.7.16,1.02.34-2.22-3.42-3.47-7.14-3.71-11.24ZM43.69,61.38c-.12-2.09-.08-4.18-.13-6.26-.29.11-.62.08-.93.08-1.92,0-3.83.02-5.75-.01-.71-.01-1.02.24-.98.98.08,1.64-.1,3.29.18,4.94.88,5.41,4.97,9.85,10.3,11.17.35.08.7.16,1.02.34-2.22-3.42-3.47-7.14-3.71-11.24ZM69.51,19.49c-.5-.52-1-.95-1.48-1.28-.48-.33-.86-.59-1.16-.76-.29-.18-.52-.3-.67-.36-.13.15-.27.33-.41.55-.15.21-.33.49-.54.85-.22.35-.4.74-.55,1.18-.15.43-.29.89-.4,1.39-.12.49-.17,1.04-.17,1.64.01.6.09,1.2.24,1.8.07.28.18.6.33.95l6.11-4.34c-.36-.56-.79-1.11-1.3-1.62ZM71.67,23.08l-6.27,3.66c.47.71,1.06,1.38,1.77,2.02.71.64,1.26,1.08,1.67,1.34s.73.44.96.55c.17-.21.35-.44.52-.69.16-.25.35-.56.56-.92.21-.37.38-.77.53-1.2.15-.44.27-.91.38-1.4.1-.5.14-1.04.12-1.62-.02-.59-.1-1.17-.24-1.74ZM78.98,55.91c.01-.62-.37-.71-.87-.71h-5.84c-.31,0-.64.03-.93-.08-.03,2.96.13,5.92-.39,8.86-.54,3.11-1.64,5.99-3.42,8.59.19-.1.42-.16.63-.22,5.98-1.52,9.85-5.76,10.74-11.84.22-1.53.05-3.07.08-4.6ZM78.98,55.91c.01-.62-.37-.71-.87-.71h-5.84c-.31,0-.64.03-.93-.08-.03,2.96.13,5.92-.39,8.86-.54,3.11-1.64,5.99-3.42,8.59.19-.1.42-.16.63-.22,5.98-1.52,9.85-5.76,10.74-11.84.22-1.53.05-3.07.08-4.6ZM43.56,55.12c-.29.11-.62.08-.93.08-1.92,0-3.83.02-5.75-.01-.71-.01-1.02.24-.98.98.08,1.64-.1,3.29.18,4.94.88,5.41,4.97,9.85,10.3,11.17.35.08.7.16,1.02.34-2.22-3.42-3.47-7.14-3.71-11.24-.12-2.09-.08-4.18-.13-6.26ZM71.67,23.08l-6.27,3.66c.47.71,1.06,1.38,1.77,2.02.71.64,1.26,1.08,1.67,1.34s.73.44.96.55c.17-.21.35-.44.52-.69.16-.25.35-.56.56-.92.21-.37.38-.77.53-1.2.15-.44.27-.91.38-1.4.1-.5.14-1.04.12-1.62-.02-.59-.1-1.17-.24-1.74ZM69.51,19.49c-.5-.52-1-.95-1.48-1.28-.48-.33-.86-.59-1.16-.76-.29-.18-.52-.3-.67-.36-.13.15-.27.33-.41.55-.15.21-.33.49-.54.85-.22.35-.4.74-.55,1.18-.15.43-.29.89-.4,1.39-.12.49-.17,1.04-.17,1.64.01.6.09,1.2.24,1.8.07.28.18.6.33.95l6.11-4.34c-.36-.56-.79-1.11-1.3-1.62ZM0,0v113.36h113.36V0H0ZM61.7,20.34c.47-1.13,1.06-2.09,1.76-2.87.71-.79,1.47-1.42,2.29-1.9.83-.48,1.59-.72,2.3-.72,1.28,0,2.46.4,3.54,1.2,1.09.8,1.94,1.89,2.57,3.26.63,1.38.94,2.88.94,4.5,0,1.19-.22,2.35-.66,3.47-.44,1.12-1.01,2.08-1.7,2.87-.68.79-1.44,1.42-2.28,1.9-.83.47-1.64.71-2.41.71-.96,0-1.87-.24-2.75-.71-.87-.48-1.62-1.11-2.25-1.91-.64-.79-1.14-1.75-1.51-2.85-.37-1.11-.56-2.27-.56-3.48s.24-2.33.72-3.47ZM55.52,16.6c-.02-.18-.05-.31-.08-.39-.11.02-.26.06-.44.11-.19.06-.52.2-1,.43-.48.24-.9.51-1.26.81-.36.31-.69.75-.99,1.33-.3.58-.45,1.21-.45,1.91-.32-.18-.68-.37-1.08-.57-.39-.2-.68-.34-.87-.44-.19-.1-.39-.22-.58-.36-.2-.14-.33-.3-.4-.47-.07-.17-.11-.37-.11-.61,0-.56.21-1.16.61-1.82.41-.65.97-1.22,1.68-1.7.71-.48,1.43-.72,2.16-.72h1.95l4.1,1.85c.12.07.24.24.35.51.12.27.19.65.23,1.13.04.48.02,1-.06,1.56-.09.56-.31,1.2-.67,1.91-.36.72-.84,1.41-1.44,2.07l-6.49,7.39c1.05-.01,2.06-.09,3.05-.26.99-.16,1.81-.36,2.45-.59.65-.23,1.23-.45,1.73-.68.5-.22.87-.41,1.11-.56l.35-.23v4.04h-12.7c3.79-5.71,6.1-9.15,6.96-10.3.44-.6.81-1.2,1.1-1.8.29-.6.48-1.11.59-1.53.1-.42.17-.82.19-1.2.03-.37.03-.65.01-.82ZM34.62,21.96h4.12v-4.12h2.34v4.12h4.12v2.34h-4.12v4.12h-2.34v-4.12h-4.12v-2.34ZM102.78,51.06c-.17.98-.32,1.96-.54,2.92-.71,3.15-1.99,5.99-4.38,8.26-.34.31-.73.58-1.1.86-.56,2.39-1.1,4.78-1.93,7.08,1.59-.9,2.95-2.12,4.37-3.26.46-.37.89-.77,1.34-1.15.2-.17.38-.44.68-.27.3.17.21.47.13.72-1.42,4.62-3.8,8.54-8.12,11.03-.56.31-1.14.61-1.78.75-1.12,2.16-2.49,4.16-3.79,6.21,2.13-.67,4.2-1.5,6.23-2.4.17-.08.33-.16.48-.22.26-.1.53-.2.72.07.18.24-.03.44-.16.63-.69,1.09-1.47,2.13-2.38,3.06-2.37,2.46-5.08,4.35-8.47,5.11-.66.14-1.32.28-2.01.24-2.87,2.81-5.98,5.33-9.38,7.47.25.69.5,1.39.76,2.09.16.43.14.79-.38.95-.26.22-.56.13-.85.13-9.8,0-19.61-.03-29.42-.05-1.3,0-1.47-.25-1.07-1.45.19-.55.54-1.05.49-1.67-3.42-2.13-6.53-4.65-9.4-7.47-2.56-.05-4.82-.99-6.91-2.35-2.38-1.53-4.32-3.53-5.85-5.91-.16-.24-.48-.48-.26-.78.25-.34.58-.13.87.01,2.15.95,4.32,1.84,6.57,2.54-1.31-2.05-2.68-4.05-3.81-6.21-2.41-.75-4.29-2.3-5.9-4.18-1.86-2.17-3.13-4.69-3.94-7.43-.09-.3-.28-.66.08-.88.33-.2.53.13.75.32,1.57,1.37,3.19,2.7,4.9,3.91.23.17.43.4.74.44-.83-2.3-1.38-4.69-1.93-7.08-2.16-1.46-3.48-3.56-4.47-5.89-1.13-2.67-1.59-5.48-1.53-8.37.01-.28-.09-.65.25-.78.43-.15.55.24.71.51,1.1,1.85,2.26,3.65,3.56,5.38.18.22.29.52.58.64-.17-5.84.53-11.57,2.13-17.19.19-.68.41-1.31,1.24-1.42,1.01-.15,1.76.65,1.49,1.71-.51,2.04-1.08,4.09-1.39,6.18-.1.74-.33,1.48-.33,2.23,0,.17.01.36.04.54,1.5-1.56,3.13-2.96,4.8-4.33.23-.19.47-.44.77-.2.24.19.1.48.04.74-1.25,4.35-3.11,8.39-5.99,11.92-.06,2.25.27,4.48.63,6.7.01.16.12.26.28.27.91-1.85,2.05-3.56,3.21-5.27.14-.2.27-.5.6-.41.33.09.28.4.29.66.14,4.41-.44,8.69-2.18,12.78.34,1.96,1.34,3.67,2.13,5.46.17.39.25.87.72,1.06.33-2.07.93-4.07,1.56-6.05.08-.25.12-.58.45-.59.36-.01.43.33.52.61,1.38,4.16,2.07,8.4,1.55,12.77,1.26,2.07,2.82,3.88,4.62,5.48-.18-2.08-.31-4.16-.26-6.25,0-.31-.09-.71.32-.82.37-.09.5.27.66.49,2.55,3.61,4.45,7.52,5.28,11.89.8.81,1.84,1.28,2.7,2,.43-.12.42-.54.51-.86.21-.66.62-.9,1.31-.91.91,0,1.83.04,2.73.04.71,0,1.42-.03,2.12-.1,1.78-2.96,3.18-6.09,3.98-9.45.39-1.62.68-3.28,1.02-4.91-.02-.21-.16-.3-.34-.37-1.45-.66-2.6-1.75-3.77-2.79-.21-.18-.44-.36-.67-.55-6.56.31-13.23-4.04-15.77-10.23-1-2.44-1.38-4.97-1.37-7.59,0-1.03-.01-2.06,0-3.09.02-1.77.77-2.55,2.53-2.55,2.8,0,5.61.03,8.41.05.01-.68.02-1.37.03-2.06-1.67-.06-1.74-.13-1.74-1.77,0-.65-.01-1.3,0-1.95.02-.93.28-1.2,1.23-1.2,2.92-.01,5.83-.01,8.75-.01,4.74.01,9.49.02,14.23.02,1.85,0,3.7-.03,5.55-.04.6,0,.95.34.97.93.03,1.02.06,2.05,0,3.07s-.78.95-1.45.95c-.1,0-.2,0-.29.01.01.68.02,1.37.02,2.04,2.72-.02,5.43-.04,8.14-.05,2.09,0,2.8.71,2.79,2.83-.02,2.21.09,4.41-.29,6.62-1.15,6.8-6.27,12.21-13,13.67-1.27.27-2.55.45-3.85.35-1.41,1.19-2.68,2.57-4.4,3.35-.43.19-.25.57-.21.85.46,3.05,1.16,6.04,2.33,8.9.72,1.74,1.6,3.41,2.59,5,1.48,0,2.96.08,4.43-.01,1.06-.07,1.7.25,1.92,1.31.03.16.04.36.23.45.9-.65,1.9-1.15,2.7-1.95.83-4.4,2.76-8.33,5.33-11.96.14-.21.28-.5.61-.42.37.1.32.45.32.73.05,2.12-.08,4.23-.25,6.34,1.8-1.6,3.35-3.41,4.61-5.48-.51-4.34.16-8.55,1.53-12.68.1-.31.13-.7.54-.69.37,0,.4.39.48.66.61,1.96,1.22,3.93,1.53,5.97.06-.02.15-.02.17-.06,1.12-2.06,2.17-4.15,2.68-6.46-1.74-4.1-2.32-8.37-2.18-12.78,0-.26-.05-.57.28-.66.34-.09.47.21.61.41,1.16,1.71,2.31,3.42,3.21,5.27.51-.16.33-.63.38-.97.3-1.78.55-3.57.55-5.37,0-.21,0-.42-.01-.63-2.87-3.51-4.73-7.51-5.97-11.83-.07-.29-.26-.61.01-.83.34-.26.59.06.84.26,1.65,1.34,3.25,2.73,4.72,4.27.08-1.57-.33-3.07-.63-4.59-.26-1.31-.64-2.62-.96-3.93-.29-1.16-.01-1.89.8-2.12.91-.25,1.51.22,1.84,1.4,1.61,5.62,2.32,11.35,2.14,17.19,1.62-1.83,2.85-3.93,4.12-6.01.25-.4.46-.81,1-.35v2.83ZM78.9,60.51c.22-1.53.05-3.07.08-4.6.01-.62-.37-.71-.87-.71h-5.84c-.31,0-.64.03-.93-.08-.03,2.96.13,5.92-.39,8.86-.54,3.11-1.64,5.99-3.42,8.59.19-.1.42-.16.63-.22,5.98-1.52,9.85-5.76,10.74-11.84ZM67.17,28.76c.71.64,1.26,1.08,1.67,1.34s.73.44.96.55c.17-.21.35-.44.52-.69.16-.25.35-.56.56-.92.21-.37.38-.77.53-1.2.15-.44.27-.91.38-1.4.1-.5.14-1.04.12-1.62-.02-.59-.1-1.17-.24-1.74l-6.27,3.66c.47.71,1.06,1.38,1.77,2.02ZM64.7,25.45l6.11-4.34c-.36-.56-.79-1.11-1.3-1.62-.5-.52-1-.95-1.48-1.28-.48-.33-.86-.59-1.16-.76-.29-.18-.52-.3-.67-.36-.13.15-.27.33-.41.55-.15.21-.33.49-.54.85-.22.35-.4.74-.55,1.18-.15.43-.29.89-.4,1.39-.12.49-.17,1.04-.17,1.64.01.6.09,1.2.24,1.8.07.28.18.6.33.95ZM43.56,55.12c-.29.11-.62.08-.93.08-1.92,0-3.83.02-5.75-.01-.71-.01-1.02.24-.98.98.08,1.64-.1,3.29.18,4.94.88,5.41,4.97,9.85,10.3,11.17.35.08.7.16,1.02.34-2.22-3.42-3.47-7.14-3.71-11.24-.12-2.09-.08-4.18-.13-6.26ZM43.69,61.38c-.12-2.09-.08-4.18-.13-6.26-.29.11-.62.08-.93.08-1.92,0-3.83.02-5.75-.01-.71-.01-1.02.24-.98.98.08,1.64-.1,3.29.18,4.94.88,5.41,4.97,9.85,10.3,11.17.35.08.7.16,1.02.34-2.22-3.42-3.47-7.14-3.71-11.24ZM78.98,55.91c.01-.62-.37-.71-.87-.71h-5.84c-.31,0-.64.03-.93-.08-.03,2.96.13,5.92-.39,8.86-.54,3.11-1.64,5.99-3.42,8.59.19-.1.42-.16.63-.22,5.98-1.52,9.85-5.76,10.74-11.84.22-1.53.05-3.07.08-4.6ZM78.98,55.91c.01-.62-.37-.71-.87-.71h-5.84c-.31,0-.64.03-.93-.08-.03,2.96.13,5.92-.39,8.86-.54,3.11-1.64,5.99-3.42,8.59.19-.1.42-.16.63-.22,5.98-1.52,9.85-5.76,10.74-11.84.22-1.53.05-3.07.08-4.6ZM43.69,61.38c-.12-2.09-.08-4.18-.13-6.26-.29.11-.62.08-.93.08-1.92,0-3.83.02-5.75-.01-.71-.01-1.02.24-.98.98.08,1.64-.1,3.29.18,4.94.88,5.41,4.97,9.85,10.3,11.17.35.08.7.16,1.02.34-2.22-3.42-3.47-7.14-3.71-11.24ZM78.98,55.91c.01-.62-.37-.71-.87-.71h-5.84c-.31,0-.64.03-.93-.08-.03,2.96.13,5.92-.39,8.86-.54,3.11-1.64,5.99-3.42,8.59.19-.1.42-.16.63-.22,5.98-1.52,9.85-5.76,10.74-11.84.22-1.53.05-3.07.08-4.6ZM43.69,61.38c-.12-2.09-.08-4.18-.13-6.26-.29.11-.62.08-.93.08-1.92,0-3.83.02-5.75-.01-.71-.01-1.02.24-.98.98.08,1.64-.1,3.29.18,4.94.88,5.41,4.97,9.85,10.3,11.17.35.08.7.16,1.02.34-2.22-3.42-3.47-7.14-3.71-11.24Z"/>
  </g>
</svg>