<?xml version="1.0" encoding="UTF-8"?>
<svg id="Layer_2" data-name="Layer 2" xmlns="http://www.w3.org/2000/svg" viewBox="0 0 479.82 479.82">
  <defs>
    <style>
      .cls-1 {
        fill: #118848;
        opacity: .76;
        stroke-width: 0px;
      }
    </style>
  </defs>
  <g id="Layer_1-2" data-name="Layer 1">
    <rect class="cls-1" x="218.97" y="227.63" width="23.84" height="59.92" transform="translate(-110.12 315.69) rotate(-57.8)"/>
    <polygon class="cls-1" points="238.84 188.75 289.54 220.69 276.83 240.86 226.13 208.93 238.84 188.75"/>
    <path class="cls-1" d="M0,0v479.82h479.82V0H0ZM332.72,197.1l-85.45,135.67c-1.89,3-4.77,5.21-8.01,6.13-3.23.92-6.56.49-9.25-1.21-2.69-1.69-4.52-4.51-5.09-7.82-.56-3.32.18-6.87,2.07-9.87l8.66-13.75-50.7-31.93-8.66,13.75c-1.89,3-4.77,5.2-8.01,6.12s-6.57.49-9.26-1.2c-2.68-1.7-4.51-4.51-5.08-7.83-.57-3.32.18-6.87,2.07-9.87l85.45-135.67c1.88-3,4.76-5.2,8-6.12,3.24-.93,6.57-.49,9.26,1.2,2.69,1.7,4.52,4.51,5.08,7.83.57,3.32-.18,6.87-2.06,9.86l-8.66,13.75,50.7,31.94,8.66-13.75c1.89-3,4.77-5.2,8-6.13,3.24-.92,6.57-.49,9.26,1.21,2.69,1.69,4.52,4.51,5.08,7.83.57,3.31-.17,6.86-2.06,9.86Z"/>
  </g>
</svg>