<?xml version="1.0" encoding="UTF-8"?>
<svg id="Layer_2" data-name="Layer 2" xmlns="http://www.w3.org/2000/svg" viewBox="0 0 479.81 479.81">
  <defs>
    <style>
      .cls-1 {
        fill: #afeda4;
        fill-rule: evenodd;
      }

      .cls-1, .cls-2 {
        stroke-width: 0px;
      }

      .cls-2 {
        fill: #118848;
        opacity: .76;
      }
    </style>
  </defs>
  <g id="Layer_1-2" data-name="Layer 1">
    <rect class="cls-2" y="0" width="479.81" height="479.81"/>
    <path class="cls-1" d="M269.64,57.43c4.74,2.98,7.96,7.94,8.96,13.79,1,5.84-.31,12.09-3.64,17.38l-15.25,24.21,89.3,56.24,15.25-24.21c3.33-5.28,8.4-9.16,14.1-10.79,5.7-1.63,11.57-.86,16.3,2.12,4.74,2.98,7.96,7.94,8.96,13.79,1,5.84-.31,12.09-3.64,17.38l-150.5,238.96c-3.33,5.28-8.4,9.16-14.1,10.79-5.7,1.62-11.57.86-16.3-2.12-4.74-2.98-7.96-7.94-8.96-13.79-1-5.84.31-12.1,3.64-17.38l15.25-24.21-89.3-56.24-15.25,24.21c-3.33,5.28-8.4,9.16-14.1,10.79-5.7,1.62-11.57.86-16.3-2.12-4.74-2.98-7.96-7.94-8.96-13.79-1-5.84.31-12.09,3.64-17.37L239.24,66.09c3.33-5.28,8.4-9.16,14.1-10.79,5.7-1.62,11.57-.86,16.3,2.12ZM164.79,263.51l89.3,56.25,22.37-35.53-89.3-56.24-22.37,35.53ZM323.93,208.88l-22.38,35.53-89.3-56.24,22.37-35.53,89.3,56.24Z"/>
  </g>
</svg>