<?xml version="1.0" encoding="UTF-8"?>
<svg id="Layer_2" data-name="Layer 2" xmlns="http://www.w3.org/2000/svg" viewBox="0 0 525.53 525.53">
  <defs>
    <style>
      .cls-1 {
        fill: #8b79d9;
        stroke-width: 0px;
      }
    </style>
  </defs>
  <g id="Layer_1-2" data-name="Layer 1">
    <g>
      <path class="cls-1" d="M332.4,167.11c-24.69-18.36-52.53-26.47-83.2-21.86-30.14,4.53-54.78,19.34-73.63,43.22-.79,1-1.55,2.01-2.31,3.02l23.18,23.87c.07-.09.12-.19.19-.28,38.23,39.54,76.15,78.76,114.09,117.99-23.66,19.05-66.52,22.9-97.52-3.37-25.31-21.44-34.26-52.13-30.31-79.51l-26.59-27.37c-6.32,17.69-8.08,36.64-5.29,56.67,3.27,23.54,12.84,44.62,28.94,62.16,30.22,32.94,67.23,46.84,111.43,36.02,26.26-6.43,49.23-22.61,65.26-44.45l-28.25-29.08c-36.81-37.58-73.35-74.88-109.89-112.19,27.33-21.66,72.8-22.86,104.26,8.03,21.33,20.95,28.47,49.48,24.61,74.89l26.03,26.79c4.5-12.64,6.98-26.19,7.02-40.18-1.02-8.43-1.39-17-3.16-25.27-6.13-28.66-21.44-51.71-44.84-69.11Z"/>
      <path class="cls-1" d="M0,0v525.53h525.53V0H0ZM443.77,318.93c.08,11.29-3.25,20.77-11.15,28.88-20.01,20.53-39.86,41.2-59.79,61.8-8.17,8.44-16.41,16.8-24.56,25.25-8.36,8.66-18.22,12.69-30.54,12.54-38.44-.46-76.89-.25-115.33-.33-9.08-.02-16.39-4.12-22.55-10.39-11.75-11.96-23.31-24.12-35.07-36.08-12.41-12.61-24.99-25.05-37.43-37.63-5.15-5.2-10.05-10.64-15.18-15.86-7.33-7.46-10.51-16.41-10.45-26.8.12-19.37.04-38.74.04-58.11h.06c0-18.45.39-36.92-.13-55.36-.37-12.98,4.41-23.22,13.3-32.2,22.64-22.87,45.15-45.87,67.69-68.84,6.09-6.2,12.04-12.54,18.19-18.68,6.07-6.07,13.3-9.03,22.11-8.99,39.36.19,78.72.14,118.09.03,8.04-.02,14.94,2.33,20.61,8.07,27.98,28.3,55.95,56.6,83.93,84.91.75.76,1.38,1.65,2.19,2.33,12.35,10.26,16.35,23.51,16.09,39.31-.59,35.37-.34,70.77-.1,106.15Z"/>
    </g>
  </g>
</svg>