<?xml version="1.0" encoding="UTF-8"?>
<svg id="Layer_2" data-name="Layer 2" xmlns="http://www.w3.org/2000/svg" viewBox="0 0 530.76 530.76">
  <defs>
    <style>
      .cls-1 {
        fill: #ffa100;
        stroke-width: 0px;
      }
    </style>
  </defs>
  <g id="Layer_1-2" data-name="Layer 1">
    <g>
      <path class="cls-1" d="M410.67,254.68c-1.51-14.32-12.96-22.2-23.39-23.34-13.46-1.47-26.33,6.55-28.6,19.28-2.04,11.44-1.48,23.35-1.79,35.07-.02.81,2.18,2.4,3.36,2.41,16.61.16,33.23.11,51.03.11,0-10,.03-19.29-.02-28.58,0-1.65-.41-3.3-.59-4.95Z"/>
      <path class="cls-1" d="M397.04,334.19c-7.75-6.17-19.08-5.59-26.32,1.34-6.46,6.19-7.69,18.64-1.42,25.34,3.99,4.26,5.15,8.47,4.53,13.79-.19,1.64-.03,3.32-.03,4.98h-.03c0,3.99.07,7.97-.02,11.96-.06,2.56,1.01,3.56,3.58,3.45,4.14-.18,8.3-.17,12.45-.18,3.87-.01,5.68-1.59,5.22-5.74-.35-3.11-.06-6.3-.1-9.45-.08-7.02-.19-13.41,5.18-19.68,6.79-7.92,4.51-19.81-3.04-25.81Z"/>
      <path class="cls-1" d="M0,0v530.76h530.76V0H0ZM283.47,428.27h-5.97c-55.3,0-110.59.02-165.88-.06-4.45-.01-9.03-.19-13.33-1.22-6.66-1.59-9.42-5.29-9.45-12.17-.14-36.63-.17-73.25-.18-109.88-.02-60.94,0-121.87.02-182.81,0-2.66-.2-5.41.4-7.96,1.57-6.69,6.74-8.98,12.94-9.65,1.65-.18,3.32-.17,4.99-.17,109.92-.01,219.84-.02,329.76.07,3.74,0,7.56.78,11.19,1.74,5.21,1.38,7.55,5.67,7.57,10.53.14,35.96.02,71.92-.03,107.88,0,.1-.14.21-.22.31-7.5-17.74-27.46-36.73-45.62-43.2,0-5.85-.08-11.83.02-17.81.09-4.82-1.86-7.51-6.92-7.47-1.5.02-2.99-.1-4.49-.1-86.11,0-172.21.03-258.32-.1-4.66,0-6.43,1-6.23,6,.38,9.4.33,18.83.06,28.24-.01.41-.02.82-.03,1.23-.02.71-.01,1.35.04,1.91h0s.1,46.07.1,46.07c-.05.84-.05,1.9-.05,3.22v56.21h.18l.16,71.75h.03v6.06h149.26v51.38ZM279.89,221.14h-24.82c-3.14,0-5.68,2.54-5.68,5.68v115.28c0,3.14-2.54,5.68-5.68,5.68h-31.97c-3.14,0-5.68-2.54-5.68-5.68v-115.28c0-3.14-2.54-5.68-5.68-5.68h-26.76c-3.31,0-5.92-2.82-5.67-6.12l2.03-26.13c.23-2.96,2.7-5.24,5.67-5.24h101.86c2.94,0,5.39,2.24,5.66,5.16l2.39,26.13c.31,3.33-2.32,6.2-5.66,6.2ZM462.53,407.74c-.09,11.17-10.55,20.35-22.89,20.47-18.99.17-37.97-.19-56.96-.07-17.29.12-34.58.72-51.87.84-11.6.07-20.9-7.16-23.43-17.8-.46-1.91-.52-3.95-.52-5.92-.04-32.3-.02-64.6-.05-96.9,0-14.53,5.76-20.21,21-19.79,0-8.91-.13-17.51.03-26.11.47-25.86,15.72-50.85,43.04-57.6,31.62-7.81,64.21,14.09,67.78,44.58.52,4.43.86,8.9.94,13.37.15,8.28.04,16.56.04,25.55,2.41,0,4.35-.02,6.29.01,9.76.13,16.61,6.26,16.66,16,.19,34.46.2,68.92-.06,103.37Z"/>
    </g>
  </g>
</svg>